<?xml version="1.0" encoding="utf-8"?>
<!-- Generator: Adobe Illustrator 15.1.1, SVG Export Plug-In . SVG Version: 6.00 Build 0)  -->
<!DOCTYPE svg PUBLIC "-//W3C//DTD SVG 1.1//EN" "http://www.w3.org/Graphics/SVG/1.1/DTD/svg11.dtd">
<svg version="1.1" id="Layer_1" xmlns="http://www.w3.org/2000/svg" xmlns:xlink="http://www.w3.org/1999/xlink" x="0px" y="0px"
	 width="61px" height="63px" viewBox="0 0 61 63" enable-background="new 0 0 61 63" xml:space="preserve">
<path fill="#BC3A27" d="M30.5,0.5c-16.568,0-30,12.089-30,27c0,14.912,13.432,27,30,27v8c0,0,18.257-13.186,21.443-16.117
	C57.236,41.514,60.5,34.85,60.5,27.5C60.5,12.589,47.068,0.5,30.5,0.5 M14.5,32.5c-2.209,0-4-1.791-4-4s1.791-4,4-4
	c2.21,0,4,1.791,4,4S16.71,32.5,14.5,32.5 M30.5,32.5c-2.209,0-4-1.791-4-4s1.791-4,4-4c2.21,0,4.001,1.791,4.001,4
	S32.711,32.5,30.5,32.5 M46.5,32.5c-2.209,0-4-1.791-4-4s1.791-4,4-4c2.211,0,4,1.791,4,4S48.711,32.5,46.5,32.5"/>
</svg>
