<?xml version="1.0" encoding="utf-8"?>
<!-- Generator: Adobe Illustrator 15.1.1, SVG Export Plug-In  -->
<!DOCTYPE svg PUBLIC "-//W3C//DTD SVG 1.1//EN" "http://www.w3.org/Graphics/SVG/1.1/DTD/svg11.dtd" [
	<!ENTITY ns_flows "http://ns.adobe.com/Flows/1.0/">
]>
<svg version="1.1"
	 xmlns="http://www.w3.org/2000/svg" xmlns:xlink="http://www.w3.org/1999/xlink" xmlns:a="http://ns.adobe.com/AdobeSVGViewerExtensions/3.0/"
	 x="0px" y="0px" width="61px" height="57px" viewBox="-0.5 -0.585 61 57"
	 overflow="visible" enable-background="new -0.5 -0.585 61 57" xml:space="preserve">
<defs>
</defs>
<path fill-rule="evenodd" clip-rule="evenodd" fill="#FFFFFF" d="M59.25,20.845C54.609,36.779,30,56,30,56
	S5.391,36.779,0.752,20.845C0.266,19.315,0,17.689,0,16C0,7.163,7.164,0,16,0c6.709,0,11.869,4.134,13.969,9.989
	C29.977,9.992,30,10,30,10s0.023-0.008,0.031-0.011C32.131,4.134,37.291,0,44,0c8.836,0,16,7.163,16,16
	C60,17.689,59.734,19.315,59.25,20.845"/>
</svg>
