<?xml version="1.0" encoding="utf-8"?>
<!-- Generator: Adobe Illustrator 15.1.1, SVG Export Plug-In . SVG Version: 6.00 Build 0)  -->
<!DOCTYPE svg PUBLIC "-//W3C//DTD SVG 1.1//EN" "http://www.w3.org/Graphics/SVG/1.1/DTD/svg11.dtd">
<svg version="1.1" id="Layer_1" xmlns="http://www.w3.org/2000/svg" xmlns:xlink="http://www.w3.org/1999/xlink" x="0px" y="0px"
	 width="61px" height="57px" viewBox="0 0 61 57" enable-background="new 0 0 61 57" xml:space="preserve">
<path fill="#BC3A27" d="M59.75,21.345C55.109,37.279,30.5,56.5,30.5,56.5S5.892,37.279,1.252,21.345
	C0.767,19.815,0.5,18.189,0.5,16.5c0-8.837,7.164-16,16-16c6.709,0,11.869,4.134,13.969,9.989C30.478,10.493,30.5,10.5,30.5,10.5
	s0.023-0.008,0.031-0.011C32.631,4.634,37.791,0.5,44.5,0.5c8.836,0,16,7.163,16,16C60.5,18.189,60.234,19.815,59.75,21.345"/>
</svg>
