<?xml version="1.0" encoding="utf-8"?>
<!-- Generator: Adobe Illustrator 15.1.1, SVG Export Plug-In  -->
<!DOCTYPE svg PUBLIC "-//W3C//DTD SVG 1.1//EN" "http://www.w3.org/Graphics/SVG/1.1/DTD/svg11.dtd" [
	<!ENTITY ns_flows "http://ns.adobe.com/Flows/1.0/">
]>
<svg version="1.1"
	 xmlns="http://www.w3.org/2000/svg" xmlns:xlink="http://www.w3.org/1999/xlink" xmlns:a="http://ns.adobe.com/AdobeSVGViewerExtensions/3.0/"
	 x="0px" y="0px" width="65px" height="55px" viewBox="-0.5 -0.585 65 55"
	 overflow="visible" enable-background="new -0.5 -0.585 65 55" xml:space="preserve">
<defs>
</defs>
<path fill-rule="evenodd" clip-rule="evenodd" fill="#263038" d="M45,32c-1.658,0-3,1.344-3,3v12c0,1.656,1.342,3,3,3
	c1.656,0,3-1.344,3-3V35C48,33.344,46.657,32,45,32 M57,32c-0.34,0-0.672,0.051-1,0.125V20C56,8.954,47.045,0,36,0h-8
	C16.955,0,8,8.954,8,20v12.125C7.673,32.051,7.341,32,7,32c-3.866,0-7,4.924-7,11c0,6.074,3.134,11,7,11
	c3.203,0,5.898-3.386,6.729-8H14V20c0-7.731,6.268-14,14-14h8c7.732,0,14,6.269,14,14v26h0.271c0.832,4.614,3.525,8,6.729,8
	c3.865,0,7-4.926,7-11C64,36.924,60.866,32,57,32 M19,32c-1.657,0-3,1.344-3,3v12c0,1.656,1.343,3,3,3s3-1.344,3-3V35
	C22,33.344,20.657,32,19,32"/>
</svg>
