<?xml version="1.0" encoding="utf-8"?>
<!-- Generator: Adobe Illustrator 15.1.1, SVG Export Plug-In . SVG Version: 6.00 Build 0)  -->
<!DOCTYPE svg PUBLIC "-//W3C//DTD SVG 1.1//EN" "http://www.w3.org/Graphics/SVG/1.1/DTD/svg11.dtd">
<svg version="1.1" id="Layer_1" xmlns="http://www.w3.org/2000/svg" xmlns:xlink="http://www.w3.org/1999/xlink" x="0px" y="0px"
	 width="65px" height="45px" viewBox="0 0 65 45" enable-background="new 0 0 65 45" xml:space="preserve">
<path fill="#BC3A27" d="M4.391,1.09l10.862,6.655c2.554,1.487,7.206,3.914,9.757,5.4l3.878,1.352V4.495
	c0-2.945,0.19-4.892,2.738-3.406L42.68,7.744c2.552,1.487,6.533,3.914,9.086,5.4L63.11,19.8c2.553,1.485,2.502,3.913-0.049,5.398
	l-11.464,6.655c-2.551,1.486-6.735,3.914-9.286,5.398l-10.677,6.657c-2.552,1.485-2.746-0.467-2.746-3.413v-10l-4.164,1.357
	c-2.554,1.486-7.111,3.914-9.663,5.398L4.583,43.909c-2.55,1.487-3.678,0.289-3.678-2.658V27.858V17.142V3.747
	C0.904,0.802,1.84-0.397,4.391,1.09"/>
</svg>
