<?xml version="1.0" encoding="utf-8"?>
<!-- Generator: Adobe Illustrator 15.1.1, SVG Export Plug-In  -->
<!DOCTYPE svg PUBLIC "-//W3C//DTD SVG 1.1//EN" "http://www.w3.org/Graphics/SVG/1.1/DTD/svg11.dtd" [
	<!ENTITY ns_flows "http://ns.adobe.com/Flows/1.0/">
]>
<svg version="1.1"
	 xmlns="http://www.w3.org/2000/svg" xmlns:xlink="http://www.w3.org/1999/xlink" xmlns:a="http://ns.adobe.com/AdobeSVGViewerExtensions/3.0/"
	 x="0px" y="0px" width="61px" height="61px" viewBox="-0.562 -0.334 61 61"
	 overflow="visible" enable-background="new -0.562 -0.334 61 61" xml:space="preserve">
<defs>
</defs>
<path fill-rule="evenodd" clip-rule="evenodd" fill="#263038" d="M11.864,21.707c0,0-0.167-1.833,1.666-1.833h34.375L48,28
	l12-14.001L48,0l-0.053,7.958H6.03c0,0-6.03-0.083-6.03,6.041V36l11.864-12.292V21.707z M48,38c0,0,0.322,1.999-1.511,1.999H11.906
	v-8.416L0,46l12,14l-0.094-8.126h41.833c0,0,6.167-0.333,6.167-5.833L60,24L48,36V38z"/>
</svg>
