<?xml version="1.0" encoding="utf-8"?>
<!-- Generator: Adobe Illustrator 15.1.1, SVG Export Plug-In  -->
<!DOCTYPE svg PUBLIC "-//W3C//DTD SVG 1.1//EN" "http://www.w3.org/Graphics/SVG/1.1/DTD/svg11.dtd" [
	<!ENTITY ns_flows "http://ns.adobe.com/Flows/1.0/">
]>
<svg version="1.1"
	 xmlns="http://www.w3.org/2000/svg" xmlns:xlink="http://www.w3.org/1999/xlink" xmlns:a="http://ns.adobe.com/AdobeSVGViewerExtensions/3.0/"
	 x="0px" y="0px" width="65px" height="65px" viewBox="-0.508 -0.594 65 65"
	 overflow="visible" enable-background="new -0.508 -0.594 65 65" xml:space="preserve">
<defs>
</defs>
<path fill-rule="evenodd" clip-rule="evenodd" fill="#263038" d="M37.982,0c-14.359,0-26,11.641-26,26
	c0,6.16,2.146,11.815,5.727,16.271c-0.122,0.075-0.237,0.162-0.343,0.268l-4.298,4.298l-0.247-0.246
	c-0.842-0.842-2.206-0.842-3.048,0l-9.143,9.143c-0.841,0.842-0.841,2.206,0,3.048l4.571,4.571c0.842,0.842,2.206,0.842,3.048,0
	l9.143-9.143c0.842-0.842,0.842-2.206,0-3.048l-0.246-0.247l4.298-4.298c0.105-0.105,0.192-0.222,0.267-0.343
	C26.167,49.854,31.822,52,37.982,52c14.359,0,26-11.641,26-26S52.341,0,37.982,0 M37.982,41.985
	c-8.828,0-15.985-7.157-15.985-15.985s7.157-15.986,15.985-15.986c8.83,0,15.986,7.158,15.986,15.986S46.812,41.985,37.982,41.985"
	/>
</svg>
