<?xml version="1.0" encoding="utf-8"?>
<!-- Generator: Adobe Illustrator 15.1.1, SVG Export Plug-In  -->
<!DOCTYPE svg PUBLIC "-//W3C//DTD SVG 1.1//EN" "http://www.w3.org/Graphics/SVG/1.1/DTD/svg11.dtd" [
	<!ENTITY ns_flows "http://ns.adobe.com/Flows/1.0/">
]>
<svg version="1.1"
	 xmlns="http://www.w3.org/2000/svg" xmlns:xlink="http://www.w3.org/1999/xlink" xmlns:a="http://ns.adobe.com/AdobeSVGViewerExtensions/3.0/"
	 x="0px" y="0px" width="82px" height="112px" viewBox="-0.595 -0.501 82 112"
	 overflow="visible" enable-background="new -0.595 -0.501 82 112" xml:space="preserve">
<defs>
</defs>
<path fill="#263038" d="M64.569,30.192c-4.334-5.53-12.256-9.117-18.832-9.117S30.94,23.317,30.94,31.687
	c0,7.025,6.277,9.267,16.291,12.406c14.349,4.633,32.883,10.762,32.883,31.836c0,24.362-19.58,35.274-40.506,35.274
	c-15.096,0-30.342-5.531-39.608-15.246l16.741-17.039c5.08,6.427,14.498,11.209,22.867,11.209c7.773,0,14.648-2.988,14.648-11.508
	c0-8.072-8.07-10.613-21.973-15.096C18.833,59.188,5.231,52.313,5.231,33.182C5.231,9.715,26.456,0,46.187,0
	c11.957,0,25.408,4.484,34.676,13.004L64.569,30.192z"/>
<path fill="#BD3B28" d="M65.121,55.602c0,13.637-11.056,24.688-24.69,24.688S15.742,69.239,15.742,55.602
	s11.054-24.689,24.688-24.689S65.121,41.965,65.121,55.602"/>
<path fill="#FFFFFF" d="M44.378,55.602c0,2.181-1.767,3.947-3.947,3.947c-2.18,0-3.947-1.767-3.947-3.947s1.768-3.947,3.947-3.947
	C42.611,51.655,44.378,53.421,44.378,55.602"/>
</svg>
