<?xml version="1.0" encoding="utf-8"?>
<!-- Generator: Adobe Illustrator 15.1.1, SVG Export Plug-In  -->
<!DOCTYPE svg PUBLIC "-//W3C//DTD SVG 1.1//EN" "http://www.w3.org/Graphics/SVG/1.1/DTD/svg11.dtd" [
	<!ENTITY ns_flows "http://ns.adobe.com/Flows/1.0/">
]>
<svg version="1.1"
	 xmlns="http://www.w3.org/2000/svg" xmlns:xlink="http://www.w3.org/1999/xlink" xmlns:a="http://ns.adobe.com/AdobeSVGViewerExtensions/3.0/"
	 x="0px" y="0px" width="362px" height="44px" viewBox="-0.633 -0.401 362 44"
	 overflow="visible" enable-background="new -0.633 -0.401 362 44" xml:space="preserve">
<defs>
</defs>
<path fill="#263038" d="M9.321,12.125v-0.121c0-2.072,1.891-3.717,5.483-3.717c3.596,0,7.312,1.584,11.089,4.203l4.874-7.068
	C26.443,1.951,21.142,0,14.927,0C6.215,0,0,5.12,0,12.855v0.122c0,8.469,5.545,10.845,14.135,13.04l4.386-8.287
	C11.15,15.84,9.321,14.926,9.321,12.125"/>
<path fill="#263038" d="M21.446,31.075v0.122c0,2.07-1.89,3.716-5.483,3.716c-3.595,0-7.312-1.584-11.089-4.203L0,37.778
	c4.326,3.471,9.626,5.421,15.84,5.421c8.713,0,14.927-5.119,14.927-12.855v-0.121c0-8.469-5.544-10.846-14.135-13.04l-4.386,8.286
	C19.617,27.359,21.446,28.273,21.446,31.075"/>
<path fill="#BD3B28" d="M24.962,21.511c0,5.291-4.289,9.579-9.579,9.579s-9.578-4.288-9.578-9.579s4.288-9.579,9.578-9.579
	S24.962,16.22,24.962,21.511"/>
<path fill="#FFFFFF" d="M16.915,21.511c0,0.846-0.686,1.532-1.531,1.532c-0.846,0-1.532-0.687-1.532-1.532
	c0-0.845,0.686-1.532,1.532-1.532C16.229,19.979,16.915,20.667,16.915,21.511"/>
<path fill="#263038" d="M36.495,0.6h17.16c10.019,0,16.08,5.94,16.08,14.519v0.12c0,9.72-7.56,14.76-16.98,14.76h-7.019v12.599
	h-9.241V0.6z M53.055,21.779c4.62,0,7.319-2.76,7.319-6.359V15.3c0-4.14-2.88-6.36-7.499-6.36h-7.139v12.839H53.055z"/>
<rect x="75.795" y="0.601" fill="#263038" width="9.239" height="41.999"/>
<polygon fill="#263038" points="94.335,0.601 102.855,0.601 122.533,26.459 122.533,0.601 131.654,0.601 131.654,42.599 
	123.794,42.599 103.455,15.899 103.455,42.599 94.335,42.599 "/>
<path fill="#263038" d="M137.475,36.479l2.94-3.479c4.38,3.959,8.579,5.939,14.399,5.939c5.639,0,9.359-3,9.359-7.141v-0.119
	c0-3.9-2.1-6.119-10.92-7.98c-9.659-2.099-14.1-5.22-14.1-12.119v-0.12c0-6.6,5.82-11.46,13.799-11.46
	c6.121,0,10.5,1.74,14.761,5.16l-2.761,3.66c-3.899-3.18-7.799-4.56-12.119-4.56c-5.46,0-8.939,3-8.939,6.78v0.12
	c0,3.96,2.16,6.18,11.399,8.159c9.359,2.04,13.68,5.46,13.68,11.88v0.12c0,7.2-6,11.88-14.34,11.88
	C147.975,43.199,142.515,40.979,137.475,36.479"/>
<polygon fill="#263038" points="176.235,0.601 206.594,0.601 206.594,4.919 180.975,4.919 180.975,19.26 203.895,19.26 
	203.895,23.58 180.975,23.58 180.975,38.279 206.895,38.279 206.895,42.599 176.235,42.599 "/>
<polygon fill="#263038" points="226.336,4.98 212.236,4.98 212.236,0.601 245.234,0.601 245.234,4.98 231.135,4.98 231.135,42.599 
	226.336,42.599 "/>
<polygon fill="#263038" points="264.016,4.98 249.916,4.98 249.916,0.601 282.914,0.601 282.914,4.98 268.814,4.98 268.814,42.599 
	264.016,42.599 "/>
<polygon fill="#263038" points="288.195,0.601 318.555,0.601 318.555,4.919 292.936,4.919 292.936,19.26 315.854,19.26 
	315.854,23.58 292.936,23.58 292.936,38.279 318.854,38.279 318.854,42.599 288.195,42.599 "/>
<path fill="#263038" d="M325.996,0.601h18.059c5.16,0,9.301,1.56,11.939,4.2c2.039,2.039,3.24,4.979,3.24,8.28V13.2
	c0,6.96-4.799,11.04-11.398,12.239l12.898,17.16h-5.82l-12.18-16.319h-11.998v16.319h-4.74V0.601z M343.635,22.02
	c6.301,0,10.801-3.24,10.801-8.64v-0.12c0-5.159-3.961-8.28-10.74-8.28h-12.959v17.04H343.635z"/>
</svg>
