<?xml version="1.0" encoding="utf-8"?>
<!-- Generator: Adobe Illustrator 15.1.1, SVG Export Plug-In  -->
<!DOCTYPE svg PUBLIC "-//W3C//DTD SVG 1.1//EN" "http://www.w3.org/Graphics/SVG/1.1/DTD/svg11.dtd" [
	<!ENTITY ns_flows "http://ns.adobe.com/Flows/1.0/">
]>
<svg version="1.1"
	 xmlns="http://www.w3.org/2000/svg" xmlns:xlink="http://www.w3.org/1999/xlink" xmlns:a="http://ns.adobe.com/AdobeSVGViewerExtensions/3.0/"
	 x="0px" y="0px" width="53px" height="48px" viewBox="-0.51 -3.583 53 48"
	 overflow="visible" enable-background="new -0.51 -3.583 53 48" xml:space="preserve">
<defs>
</defs>
<path fill-rule="evenodd" clip-rule="evenodd" fill="#263038" d="M32,12.006v4.007c2.15,0.067,3.875,1.821,3.875,3.987
	c0,2.167-1.725,3.92-3.875,3.987v4.007c4.359-0.067,7.875-3.618,7.875-7.994S36.359,12.074,32,12.006 M4,12c-2.209,0-4,1.433-4,3.2
	v9.599C0,26.567,1.791,28,4,28h4l20,12V20.947c-0.074-0.305-0.125-0.619-0.125-0.947s0.051-0.642,0.125-0.947V0L8,12H4z"/>
</svg>
